_________________________  Visit us at _________________________
  
http://p2pdl.com  ____________________________  http://p2pdl.com


Last Passenger 2013 BRRip 480p x264 AAC - VYTO


Genre: Action | Mystery | Thriller
Plot: A small group of everyday passengers on a speeding London commuter train battle their warped
driver who has a dark plan for everyone on-board.
Director: Omid Nooshin
Stars: Dougray Scott, Lindsay Duncan, Iddo Goldberg.
Rated: N/a


Info: 
http://www.imdb.com/title/tt1858481/


Format                         : MPEG-4
File size                      : 301 MiB
Duration                       : 1h 36mn
Overall bit rate               : 436 Kbps
Source                         : 720p.BluRay.x264-iNVANDRAREN

Video
Format                         : AVC
Duration                       : 1h 36mn
Bit rate                       : 393 Kbps
Width                          : 720 pixels
Height                         : 304 pixels
Display aspect ratio           : 2.35:1
Frame rate mode                : Constant
Frame rate                     : 24.000 fps
Stream size                    : 271 MiB (90%)
Writing library                : x264 core 130 r2273

Audio
Format                         : AAC
Bit rate mode                  : Variable
Bit rate                       : 40.0 Kbps
Channel(s)                     : 2 channels
Channel positions              : Front: L R
Sampling rate                  : 44.1 KHz
Stream size                    : 27.6 MiB (9%)
Language                       : English

Subtitle                       : None
 
http://ultraimg.com/images/i1dlf.png 
http://ultraimg.com/images/M4dk2.png 
http://ultraimg.com/images/ol1O7.png 
http://ultraimg.com/images/42Yty.png 
http://ultraimg.com/images/gsEOY.png 
http://ultraimg.com/images/qBube.png


----------------------------------------------------------------------------------------------------


Encoded using revolutionary 10bit encoding, which enables us to provide you more crispier 
and sharper images at small sizes, just make sure you follow our instructions without a fault.
Recommend to you to use latest version of VLC player. Install K-Lite Codec Pack or shark007 codecs
in case of any kind of problem in playback (For non-VLC Media Player users). Alternatively, install
Core AVC codecs, the fastest decoder that there is coupled with Community Center Codec Pack and play
on Windows Media Player Classic. Check sample to be sure.
Enjoy!

Encoder Notes:Looking For Early Access To Anything You Can Provide DVDScr, R5, DVDR, BluRay, Direct
Audio, Music Releases and Seedboxes. We require dedicated servers, so as to do more 
and fast releases of movies.
If You Got anything to offer please contact us at "prg@hush.com".

Face book Fan Page:   
http://www.fb.me/p2pdl